<svg width="242" height="117" viewBox="0 0 242 117" fill="none" xmlns="http://www.w3.org/2000/svg">
<path fill-rule="evenodd" clip-rule="evenodd" d="M127.281 3.61981L142.476 29.8909L143.052 30.8857H168.461C170.405 19.7409 180.143 11.2674 191.864 11.2674C204.985 11.2674 215.622 21.8847 215.622 34.9819C215.622 48.0792 204.985 58.6966 191.864 58.6966C180.143 58.6966 170.405 50.2231 168.461 39.0782H147.79L157.672 56.1621C159.003 58.4642 159.003 61.0998 157.672 63.4019C156.34 65.7041 154.054 67.0218 151.39 67.0218H121H90.6094C87.9463 67.0218 85.6597 65.7041 84.3282 63.4019C82.9967 61.0998 82.9967 58.4642 84.3282 56.1621L94.2096 39.0782H73.539C71.5947 50.2231 61.8571 58.6966 50.1357 58.6966C37.0146 58.6966 26.3779 48.0792 26.3779 34.9819C26.3779 21.8847 37.0146 11.2674 50.1357 11.2674C61.8571 11.2674 71.5947 19.7409 73.539 30.8857H98.9481L99.5234 29.8911L114.719 3.61987C116.05 1.31754 118.337 0 121 0C123.663 0 125.949 1.31754 127.281 3.61987V3.61981Z" fill="#090909"/>
<path d="M79.9432 75.7273V99H75.0227V75.7273H79.9432ZM99.4233 83.25C99.2642 82.697 99.0407 82.2083 98.7528 81.7841C98.465 81.3523 98.1127 80.9886 97.696 80.6932C97.2869 80.3902 96.8172 80.1591 96.2869 80C95.7642 79.8409 95.1847 79.7614 94.5483 79.7614C93.3589 79.7614 92.3134 80.0568 91.4119 80.6477C90.518 81.2386 89.821 82.0985 89.321 83.2273C88.821 84.3485 88.571 85.7197 88.571 87.3409C88.571 88.9621 88.8172 90.3409 89.3097 91.4773C89.8021 92.6136 90.4991 93.4811 91.4006 94.0795C92.3021 94.6705 93.3665 94.9659 94.5938 94.9659C95.7074 94.9659 96.6581 94.7689 97.446 94.375C98.2415 93.9735 98.8475 93.4091 99.2642 92.6818C99.6884 91.9545 99.9006 91.0947 99.9006 90.1023L100.901 90.25H94.9006V86.5455H104.639V89.4773C104.639 91.5227 104.207 93.2803 103.344 94.75C102.48 96.2121 101.291 97.3409 99.7756 98.1364C98.2604 98.9242 96.5256 99.3182 94.571 99.3182C92.3892 99.3182 90.4725 98.8371 88.821 97.875C87.1695 96.9053 85.8816 95.5303 84.9574 93.75C84.0407 91.9621 83.5824 89.8409 83.5824 87.3864C83.5824 85.5 83.8551 83.8182 84.4006 82.3409C84.9536 80.8561 85.7263 79.5985 86.7188 78.5682C87.7112 77.5379 88.8665 76.7538 90.1847 76.2159C91.5028 75.678 92.9309 75.4091 94.4688 75.4091C95.7869 75.4091 97.0142 75.6023 98.1506 75.9886C99.2869 76.3674 100.295 76.9053 101.173 77.6023C102.06 78.2992 102.783 79.1288 103.344 80.0909C103.904 81.0455 104.264 82.0985 104.423 83.25H99.4233ZM108.335 99V75.7273H117.653C119.366 75.7273 120.794 75.9811 121.938 76.4886C123.081 76.9962 123.941 77.7008 124.517 78.6023C125.093 79.4962 125.381 80.5265 125.381 81.6932C125.381 82.6023 125.199 83.4015 124.835 84.0909C124.472 84.7727 123.972 85.3333 123.335 85.7727C122.706 86.2045 121.987 86.5114 121.176 86.6932V86.9205C122.063 86.9583 122.892 87.2083 123.665 87.6705C124.445 88.1326 125.078 88.7803 125.562 89.6136C126.047 90.4394 126.29 91.4242 126.29 92.5682C126.29 93.803 125.983 94.9053 125.369 95.875C124.763 96.8371 123.866 97.5985 122.676 98.1591C121.487 98.7197 120.021 99 118.278 99H108.335ZM113.256 94.9773H117.267C118.638 94.9773 119.638 94.7159 120.267 94.1932C120.896 93.6629 121.21 92.9583 121.21 92.0795C121.21 91.4356 121.055 90.8674 120.744 90.375C120.434 89.8826 119.991 89.4962 119.415 89.2159C118.847 88.9356 118.169 88.7955 117.381 88.7955H113.256V94.9773ZM113.256 85.4659H116.903C117.578 85.4659 118.176 85.3485 118.699 85.1136C119.229 84.8712 119.646 84.5303 119.949 84.0909C120.259 83.6515 120.415 83.125 120.415 82.5114C120.415 81.6705 120.116 80.9924 119.517 80.4773C118.926 79.9621 118.085 79.7045 116.994 79.7045H113.256V85.4659ZM134.412 75.7273V99H129.491V75.7273H134.412ZM153.892 83.25C153.733 82.697 153.509 82.2083 153.222 81.7841C152.934 81.3523 152.581 80.9886 152.165 80.6932C151.756 80.3902 151.286 80.1591 150.756 80C150.233 79.8409 149.653 79.7614 149.017 79.7614C147.828 79.7614 146.782 80.0568 145.881 80.6477C144.987 81.2386 144.29 82.0985 143.79 83.2273C143.29 84.3485 143.04 85.7197 143.04 87.3409C143.04 88.9621 143.286 90.3409 143.778 91.4773C144.271 92.6136 144.968 93.4811 145.869 94.0795C146.771 94.6705 147.835 94.9659 149.062 94.9659C150.176 94.9659 151.127 94.7689 151.915 94.375C152.71 93.9735 153.316 93.4091 153.733 92.6818C154.157 91.9545 154.369 91.0947 154.369 90.1023L155.369 90.25H149.369V86.5455H159.108V89.4773C159.108 91.5227 158.676 93.2803 157.812 94.75C156.949 96.2121 155.759 97.3409 154.244 98.1364C152.729 98.9242 150.994 99.3182 149.04 99.3182C146.858 99.3182 144.941 98.8371 143.29 97.875C141.638 96.9053 140.35 95.5303 139.426 93.75C138.509 91.9621 138.051 89.8409 138.051 87.3864C138.051 85.5 138.324 83.8182 138.869 82.3409C139.422 80.8561 140.195 79.5985 141.188 78.5682C142.18 77.5379 143.335 76.7538 144.653 76.2159C145.972 75.678 147.4 75.4091 148.938 75.4091C150.256 75.4091 151.483 75.6023 152.619 75.9886C153.756 76.3674 154.763 76.9053 155.642 77.6023C156.528 78.2992 157.252 79.1288 157.812 80.0909C158.373 81.0455 158.733 82.0985 158.892 83.25H153.892ZM167.724 75.7273V99H162.804V75.7273H167.724Z" fill="#090909"/>
</svg>
